# xmcd
#
# Track frame offsets: 
#        150
#        18425
#        38575
#        62050
#        82275
#        106462
#        129700
#        153900
#        173737
#        196225
#        217150
#        243025
#        280500
#
# Disc length: 4111 seconds
#
# Revision: 0
# Processed by: cddbd v1.5.2PL0 Copyright (c) Steve Scherf et al.
# Submitted via: ExactAudioCopy v1.0b3
#
DISCID=ae100d0d
DTITLE=Various Artist - Up Front - The Next Generation
DYEAR=1900
DGENRE=
TTITLE0=Blame - Music Takes You (2 Bad Mice Rmx)
TTITLE1=D.O.P. - Groovy Beat (The Rocket Mix)
TTITLE2=Hypnotist - Live In Berlin (Hymn)
TTITLE3=Boyzland - Higher
TTITLE4=Acen - Close Your Eyes (Optikonfusion Mix)
TTITLE5=The Brothers Grimm - Field Of Dreams
TTITLE6=R.H.C. - Reach (Pete Smith Rmx)
TTITLE7=Project One Feat. Nanisha Williams - Roughneck
TTITLE8=React 2 Rhythm - I Know You Like It (Scenes From A Fractal Blo
TTITLE8=tter Mix)
TTITLE9=After Dark - Come With Me Tonight (Boyzland Rmx)
TTITLE10=Eskimos and Egypt - Welcome To The Future (Reggae Metal)
TTITLE11=Lunatic - Lunatic Chill (Solaris Mix)
TTITLE12=Double You - Please Don't Go (Club Mix)
EXTD=
EXTT0=
EXTT1=
EXTT2=
EXTT3=
EXTT4=
EXTT5=
EXTT6=
EXTT7=
EXTT8=
EXTT9=
EXTT10=
EXTT11=
EXTT12=
PLAYORDER=
